<svg width="17" height="18" viewBox="0 0 17 18" fill="none" xmlns="http://www.w3.org/2000/svg">
<path d="M16.3359 0C15.9692 0 15.6719 0.314789 15.6719 0.703125V14.4844C15.6719 15.6475 14.7782 16.5938 13.6797 16.5938H3.32031C2.22182 16.5938 1.32812 15.6475 1.32812 14.4844V0.703125C1.32812 0.314789 1.03082 0 0.664062 0C0.297301 0 0 0.314789 0 0.703125V14.4844C0 16.4229 1.48949 18 3.32031 18H13.6797C15.5105 18 17 16.4229 17 14.4844V0.703125C17 0.314789 16.7027 0 16.3359 0Z" fill="#8255A1"/>
<path d="M13.6797 2.8125C14.0464 2.8125 14.3438 2.49771 14.3438 2.10938C14.3438 1.72104 14.0464 1.40625 13.6797 1.40625H12.4844C12.1176 1.40625 11.8203 1.72104 11.8203 2.10938C11.8203 2.49771 12.1176 2.8125 12.4844 2.8125H13.6797Z" fill="#8255A1"/>
<path d="M3.32031 8.29688H5.84375C6.21051 8.29688 6.50781 7.98209 6.50781 7.59375C6.50781 7.20541 6.21051 6.89062 5.84375 6.89062H3.32031C2.95355 6.89062 2.65625 7.20541 2.65625 7.59375C2.65625 7.98209 2.95355 8.29688 3.32031 8.29688Z" fill="#8255A1"/>
<path d="M3.32031 13.9219H5.29391C5.56803 14.7402 6.30617 15.3281 7.17188 15.3281H8.5C9.59849 15.3281 10.4922 14.3819 10.4922 13.2188C10.4922 12.0556 9.59849 11.1094 8.5 11.1094H7.17188C6.30617 11.1094 5.56806 11.6973 5.29391 12.5156H3.32031C2.95355 12.5156 2.65625 12.8304 2.65625 13.2188C2.65625 13.6071 2.95355 13.9219 3.32031 13.9219ZM7.17188 12.5156H8.5C8.86616 12.5156 9.16406 12.831 9.16406 13.2188C9.16406 13.6065 8.86616 13.9219 8.5 13.9219H7.17188C6.80571 13.9219 6.50781 13.6065 6.50781 13.2188C6.50781 12.831 6.80571 12.5156 7.17188 12.5156Z" fill="#8255A1"/>
<path d="M13.6797 12.5156H12.4844C12.1176 12.5156 11.8203 12.8304 11.8203 13.2188C11.8203 13.6071 12.1176 13.9219 12.4844 13.9219H13.6797C14.0464 13.9219 14.3438 13.6071 14.3438 13.2188C14.3438 12.8304 14.0464 12.5156 13.6797 12.5156Z" fill="#8255A1"/>
<path d="M8.5 0H7.17188C6.30617 0 5.56806 0.587883 5.29391 1.40625H3.32031C2.95355 1.40625 2.65625 1.72104 2.65625 2.10938C2.65625 2.49771 2.95355 2.8125 3.32031 2.8125H5.29391C5.56803 3.63087 6.30617 4.21875 7.17188 4.21875H8.5C9.59849 4.21875 10.4922 3.27248 10.4922 2.10938C10.4922 0.946266 9.59849 0 8.5 0ZM8.5 2.8125H7.17188C6.80571 2.8125 6.50781 2.49708 6.50781 2.10938C6.50781 1.72167 6.80571 1.40625 7.17188 1.40625H8.5C8.86616 1.40625 9.16406 1.72167 9.16406 2.10938C9.16406 2.49708 8.86616 2.8125 8.5 2.8125Z" fill="#8255A1"/>
<path d="M9.82812 5.48438C8.72963 5.48438 7.83594 6.43064 7.83594 7.59375C7.83594 8.75686 8.72963 9.70312 9.82812 9.70312H11.1562C12.022 9.70312 12.7601 9.11524 13.0342 8.29688H13.6797C14.0464 8.29688 14.3438 7.98209 14.3438 7.59375C14.3438 7.20541 14.0464 6.89062 13.6797 6.89062H13.0342C12.7601 6.07226 12.022 5.48438 11.1562 5.48438H9.82812ZM11.8203 7.59375C11.8203 7.98145 11.5224 8.29688 11.1562 8.29688H9.82812C9.46196 8.29688 9.16406 7.98145 9.16406 7.59375C9.16406 7.20605 9.46196 6.89062 9.82812 6.89062H11.1562C11.5224 6.89062 11.8203 7.20605 11.8203 7.59375Z" fill="#8255A1"/>
</svg>
