<svg width="37" height="37" viewBox="0 0 37 37" fill="none" xmlns="http://www.w3.org/2000/svg">
<g filter="url(#filter0_d_2108_1143)">
<circle cx="18.5" cy="17.5" r="14.5" fill="#8255A1"/>
</g>
<path d="M15.9586 16.4768C16.1287 16.4827 16.2899 16.5544 16.4081 16.6768C16.5264 16.7992 16.5925 16.9628 16.5925 17.133C16.5925 17.3032 16.5264 17.4668 16.4081 17.5892C16.2899 17.7116 16.1287 17.7834 15.9586 17.7893C15.7885 17.7834 15.6273 17.7116 15.509 17.5892C15.3908 17.4668 15.3247 17.3032 15.3247 17.133C15.3247 16.9628 15.3908 16.7992 15.509 16.6768C15.6273 16.5544 15.7885 16.4827 15.9586 16.4768ZM21.0416 17.7893C21.2117 17.7834 21.3729 17.7116 21.4911 17.5892C21.6094 17.4668 21.6755 17.3032 21.6755 17.133C21.6755 16.9628 21.6094 16.7992 21.4911 16.6768C21.3729 16.5544 21.2117 16.4827 21.0416 16.4768C20.8715 16.4827 20.7103 16.5544 20.592 16.6768C20.4738 16.7992 20.4077 16.9628 20.4077 17.133C20.4077 17.3032 20.4738 17.4668 20.592 17.5892C20.7103 17.7116 20.8715 17.7834 21.0416 17.7893ZM20.6861 19.4921C20.051 19.9544 19.2856 20.2034 18.5001 20.2034C17.7145 20.2034 16.9492 19.9544 16.3141 19.4921C16.2418 19.4452 16.1609 19.413 16.0761 19.3975C15.9913 19.3819 15.9043 19.3833 15.8201 19.4015C15.7358 19.4196 15.656 19.4542 15.5851 19.5033C15.5143 19.5524 15.4538 19.615 15.4072 19.6875C14.7186 20.8932 17.8337 21.5776 18.5 21.5249C19.1681 21.5774 22.2797 20.8941 21.593 19.6876C21.5464 19.615 21.4859 19.5524 21.4151 19.5033C21.3442 19.4542 21.2644 19.4196 21.1801 19.4014C21.0959 19.3833 21.0089 19.3819 20.9241 19.3975C20.8393 19.413 20.7584 19.4452 20.6861 19.4921ZM28.2394 16.9715V20.4188C28.2389 20.7523 28.1062 21.072 27.8704 21.3078C27.6346 21.5436 27.3148 21.6763 26.9813 21.6768H25.7496C25.7712 22.0288 25.7208 22.3814 25.6015 22.7133C25.4821 23.0451 25.2963 23.3491 25.0555 23.6067C24.8147 23.8642 24.5238 24.07 24.2007 24.2113C23.8777 24.3527 23.5291 24.4266 23.1765 24.4287H17.9695V26.0251C17.9695 26.1507 17.9335 26.2737 17.8657 26.3795C17.7979 26.4853 17.7011 26.5693 17.5869 26.6217C17.4727 26.6741 17.3458 26.6926 17.2214 26.675C17.097 26.6574 16.9803 26.6044 16.8851 26.5224L14.4536 24.4287H13.8236C13.471 24.4266 13.1225 24.3527 12.7994 24.2113C12.4764 24.07 12.1855 23.8643 11.9447 23.6067C11.7038 23.3491 11.518 23.0451 11.3987 22.7133C11.2794 22.3814 11.2289 22.0288 11.2506 21.6768H10.0188C9.68527 21.6763 9.36555 21.5436 9.12972 21.3078C8.8939 21.072 8.76121 20.7523 8.76074 20.4187V16.9715C8.76121 16.638 8.8939 16.3183 9.12972 16.0825C9.36555 15.8466 9.68527 15.714 10.0188 15.7135H11.2506C11.2289 15.3615 11.2793 15.0088 11.3987 14.677C11.518 14.3452 11.7038 14.0412 11.9447 13.7836C12.1855 13.526 12.4764 13.3203 12.7994 13.1789C13.1225 13.0376 13.471 12.9637 13.8236 12.9616H17.8438V11.8725C17.4939 11.7491 17.1914 11.5191 16.979 11.2149C16.7665 10.9106 16.6548 10.5474 16.6595 10.1764C16.6637 9.69383 16.8573 9.23223 17.1984 8.89095C17.5396 8.54967 18.0012 8.35601 18.4837 8.35164C18.9663 8.34727 19.4312 8.53255 19.7785 8.8676C20.1258 9.20264 20.3277 9.66066 20.3407 10.1431C20.3516 10.5196 20.2429 10.8898 20.0301 11.2006C19.8172 11.5114 19.5113 11.7466 19.1563 11.8725V12.9616H23.1765C23.5292 12.9637 23.8777 13.0376 24.2007 13.1789C24.5238 13.3203 24.8147 13.526 25.0555 13.7836C25.2963 14.0412 25.4821 14.3452 25.6015 14.677C25.7208 15.0088 25.7712 15.3615 25.7496 15.7135H26.9814C27.3149 15.714 27.6346 15.8467 27.8704 16.0825C28.1062 16.3183 28.2389 16.638 28.2394 16.9715ZM17.972 10.1764C17.9779 10.3138 18.0372 10.4435 18.1373 10.5378C18.2374 10.6322 18.3703 10.6838 18.5079 10.6816C18.6454 10.6794 18.7766 10.6237 18.8737 10.5262C18.9707 10.4288 19.0259 10.2973 19.0275 10.1597C19.0283 10.0892 19.015 10.0192 18.9883 9.95388C18.9616 9.88857 18.9221 9.82927 18.8721 9.77949C18.8221 9.7297 18.7627 9.69044 18.6972 9.66403C18.6318 9.63761 18.5618 9.62458 18.4912 9.62569C18.4207 9.6268 18.3511 9.64204 18.2865 9.6705C18.2219 9.69897 18.1637 9.74009 18.1153 9.79142C18.0669 9.84276 18.0293 9.90327 18.0047 9.96939C17.9801 10.0355 17.969 10.1059 17.972 10.1764ZM11.2487 17.026H10.0733V20.3643H11.2487V17.026ZM24.4371 15.5417C24.4377 15.2066 24.3053 14.8848 24.069 14.6472C23.8327 14.4095 23.5117 14.2753 23.1765 14.2741H13.8236C13.4885 14.2753 13.1675 14.4095 12.9311 14.6472C12.6948 14.8848 12.5624 15.2066 12.5631 15.5417V21.8485C12.5624 22.1837 12.6948 22.5054 12.9311 22.7431C13.1675 22.9808 13.4885 23.1149 13.8236 23.1162C14.1396 23.1439 14.881 23.0171 15.1253 23.2751L16.6569 24.594V23.7724C16.6569 23.6862 16.6738 23.6008 16.7068 23.5212C16.7398 23.4416 16.7881 23.3692 16.849 23.3082C16.91 23.2473 16.9824 23.199 17.062 23.166C17.1416 23.133 17.227 23.1161 17.3132 23.1161H23.1765C23.5117 23.1149 23.8327 22.9807 24.069 22.7431C24.3054 22.5054 24.4377 22.1837 24.4371 21.8485L24.4371 15.5417ZM26.9269 17.026H25.7515V20.3643H26.9269V17.026Z" fill="white"/>
<defs>
<filter id="filter0_d_2108_1143" x="0" y="0" width="37" height="37" filterUnits="userSpaceOnUse" color-interpolation-filters="sRGB">
<feFlood flood-opacity="0" result="BackgroundImageFix"/>
<feColorMatrix in="SourceAlpha" type="matrix" values="0 0 0 0 0 0 0 0 0 0 0 0 0 0 0 0 0 0 127 0" result="hardAlpha"/>
<feOffset dy="1"/>
<feGaussianBlur stdDeviation="2"/>
<feComposite in2="hardAlpha" operator="out"/>
<feColorMatrix type="matrix" values="0 0 0 0 0 0 0 0 0 0 0 0 0 0 0 0 0 0 0.25 0"/>
<feBlend mode="normal" in2="BackgroundImageFix" result="effect1_dropShadow_2108_1143"/>
<feBlend mode="normal" in="SourceGraphic" in2="effect1_dropShadow_2108_1143" result="shape"/>
</filter>
</defs>
</svg>
