<svg width="32" height="31" viewBox="0 0 32 31" fill="none" xmlns="http://www.w3.org/2000/svg">
<g filter="url(#filter0_d_2615_11)">
<ellipse cx="16" cy="14.5" rx="12" ry="11.5" fill="white"/>
</g>
<g clip-path="url(#clip0_2615_11)">
<path d="M20.6875 11.625C19.2446 11.625 20.7083 11.625 11.3125 11.625C11.0536 11.625 10.8438 11.8349 10.8438 12.0938C10.8438 12.3526 11.0536 12.5625 11.3125 12.5625H11.8619C11.8098 12.7092 11.7812 12.8669 11.7812 13.0312C11.7812 13.0986 11.7861 13.1661 11.7955 13.2313L12.733 19.7937C12.8311 20.4814 13.4296 21 14.125 21H17.875C18.5704 21 19.1689 20.4814 19.267 19.7938L20.2045 13.2319C20.2139 13.1661 20.2188 13.0986 20.2188 13.0312C20.2188 12.8669 20.1902 12.7092 20.1381 12.5625H20.6875C20.9464 12.5625 21.1562 12.3526 21.1562 12.0938C21.1562 11.8349 20.9464 11.625 20.6875 11.625ZM19.2812 13.0312C19.2812 13.054 19.2797 13.0764 19.2765 13.0987L18.339 19.6612C18.3063 19.89 18.1068 20.0625 17.875 20.0625H14.125C13.8932 20.0625 13.6937 19.89 13.661 19.6612L12.7235 13.0981C12.7203 13.0764 12.7188 13.054 12.7188 13.0312C12.7188 12.7728 12.929 12.5625 13.1875 12.5625H18.8125C19.071 12.5625 19.2812 12.7728 19.2812 13.0312Z" fill="#EDA53A"/>
<path d="M14.125 10.875C14.3839 10.875 14.5938 10.6651 14.5938 10.4062C14.5938 10.1478 14.804 9.9375 15.0625 9.9375H16.9375C17.196 9.9375 17.4062 10.1478 17.4062 10.4062C17.4062 10.6651 17.6161 10.875 17.875 10.875C18.1339 10.875 18.3438 10.6651 18.3438 10.4062C18.3438 9.63084 17.7129 9 16.9375 9H15.0625C14.2871 9 13.6562 9.63084 13.6562 10.4062C13.6562 10.6651 13.8661 10.875 14.125 10.875Z" fill="#EDA53A"/>
<path d="M14.4743 18.7226C14.5077 18.9564 14.7082 19.1251 14.9377 19.1251C14.9598 19.1251 14.9821 19.1236 15.0046 19.1203C15.2609 19.0837 15.439 18.8463 15.4023 18.59L14.7326 13.9025C14.696 13.6462 14.4586 13.4681 14.2023 13.5048C13.946 13.5414 13.7679 13.7788 13.8046 14.0351L14.4743 18.7226Z" fill="#EDA53A"/>
<path d="M16.9953 19.1203C17.0178 19.1235 17.0401 19.1251 17.0622 19.1251C17.2917 19.1251 17.4922 18.9564 17.5256 18.7226L18.1953 14.0351C18.2319 13.7788 18.0538 13.5414 17.7976 13.5048C17.5414 13.4681 17.3038 13.6462 17.2673 13.9025L16.5975 18.59C16.5609 18.8463 16.739 19.0837 16.9953 19.1203Z" fill="#EDA53A"/>
</g>
<defs>
<filter id="filter0_d_2615_11" x="0" y="0" width="32" height="31" filterUnits="userSpaceOnUse" color-interpolation-filters="sRGB">
<feFlood flood-opacity="0" result="BackgroundImageFix"/>
<feColorMatrix in="SourceAlpha" type="matrix" values="0 0 0 0 0 0 0 0 0 0 0 0 0 0 0 0 0 0 127 0" result="hardAlpha"/>
<feOffset dy="1"/>
<feGaussianBlur stdDeviation="2"/>
<feComposite in2="hardAlpha" operator="out"/>
<feColorMatrix type="matrix" values="0 0 0 0 0 0 0 0 0 0 0 0 0 0 0 0 0 0 0.25 0"/>
<feBlend mode="normal" in2="BackgroundImageFix" result="effect1_dropShadow_2615_11"/>
<feBlend mode="normal" in="SourceGraphic" in2="effect1_dropShadow_2615_11" result="shape"/>
</filter>
<clipPath id="clip0_2615_11">
<rect width="12" height="12" fill="white" transform="translate(10 9)"/>
</clipPath>
</defs>
</svg>
