<svg width="22" height="22" viewBox="0 0 22 22" fill="none" xmlns="http://www.w3.org/2000/svg">
<circle cx="11" cy="11" r="11" fill="#8255A1" fill-opacity="0.07"/>
<path d="M11.0331 11.5852C11.0331 11.7435 10.9727 11.9017 10.8521 12.0223L7.05554 15.8189C6.81404 16.0604 6.42247 16.0604 6.18106 15.8189C5.93965 15.5775 5.93965 15.186 6.18106 14.9444L9.54048 11.5852L6.18118 8.22598C5.93976 7.98447 5.93976 7.59302 6.18118 7.35163C6.42259 7.11 6.81415 7.11 7.05566 7.35163L10.8522 11.1481C10.9728 11.2688 11.0331 11.427 11.0331 11.5852Z" fill="#8255A1"/>
<path d="M16.0654 11.5852C16.0654 11.7435 16.0049 11.9017 15.8843 12.0223L12.0878 15.8189C11.8463 16.0604 11.4547 16.0604 11.2133 15.8189C10.9719 15.5775 10.9719 15.186 11.2133 14.9444L14.5727 11.5852L11.2134 8.22598C10.972 7.98447 10.972 7.59302 11.2134 7.35163C11.4548 7.11 11.8464 7.11 12.0879 7.35163L15.8845 11.1481C16.0051 11.2688 16.0654 11.427 16.0654 11.5852Z" fill="#8255A1"/>
</svg>
