<svg width="17" height="17" viewBox="0 0 17 17" fill="none" xmlns="http://www.w3.org/2000/svg">
<path d="M3.32031 10.3594H1.99219C0.893695 10.3594 0 9.46568 0 8.36719V1.99219C0 0.893695 0.893695 0 1.99219 0H3.32031C4.4188 0 5.3125 0.893695 5.3125 1.99219V8.36719C5.3125 9.46568 4.4188 10.3594 3.32031 10.3594ZM1.99219 1.32812C1.62602 1.32812 1.32812 1.62602 1.32812 1.99219V8.36719C1.32812 8.73335 1.62602 9.03125 1.99219 9.03125H3.32031C3.68648 9.03125 3.98438 8.73335 3.98438 8.36719V1.99219C3.98438 1.62602 3.68648 1.32812 3.32031 1.32812H1.99219Z" fill="#575353"/>
<path d="M8.36719 17H1.99219C0.893695 17 0 16.1063 0 15.0078V13.6797C0 12.5812 0.893695 11.6875 1.99219 11.6875H8.36719C9.46568 11.6875 10.3594 12.5812 10.3594 13.6797V15.0078C10.3594 16.1063 9.46568 17 8.36719 17ZM1.99219 13.0156C1.62602 13.0156 1.32812 13.3135 1.32812 13.6797V15.0078C1.32812 15.374 1.62602 15.6719 1.99219 15.6719H8.36719C8.73335 15.6719 9.03125 15.374 9.03125 15.0078V13.6797C9.03125 13.3135 8.73335 13.0156 8.36719 13.0156H1.99219Z" fill="#575353"/>
<path d="M15.0078 17H13.6797C12.5812 17 11.6875 16.1063 11.6875 15.0078V13.6797C11.6875 12.5812 12.5812 11.6875 13.6797 11.6875H15.0078C16.1063 11.6875 17 12.5812 17 13.6797V15.0078C17 16.1063 16.1063 17 15.0078 17ZM13.6797 13.0156C13.3135 13.0156 13.0156 13.3135 13.0156 13.6797V15.0078C13.0156 15.374 13.3135 15.6719 13.6797 15.6719H15.0078C15.374 15.6719 15.6719 15.374 15.6719 15.0078V13.6797C15.6719 13.3135 15.374 13.0156 15.0078 13.0156H13.6797Z" fill="#575353"/>
<path d="M15.0078 10.3594H8.63281C7.53432 10.3594 6.64062 9.46568 6.64062 8.36719V1.99219C6.64062 0.893695 7.53432 0 8.63281 0H15.0078C16.1063 0 17 0.893695 17 1.99219V8.36719C17 9.46568 16.1063 10.3594 15.0078 10.3594ZM8.63281 1.32812C8.26665 1.32812 7.96875 1.62602 7.96875 1.99219V8.36719C7.96875 8.73335 8.26665 9.03125 8.63281 9.03125H15.0078C15.374 9.03125 15.6719 8.73335 15.6719 8.36719V1.99219C15.6719 1.62602 15.374 1.32812 15.0078 1.32812H8.63281Z" fill="#575353"/>
</svg>
