<svg width="17" height="17" viewBox="0 0 17 17" fill="none" xmlns="http://www.w3.org/2000/svg">
<path d="M14.0117 17H10.7578C9.87766 16.9674 9.87833 15.7042 10.7578 15.6719H14.0117C14.8919 15.7045 14.8912 16.9677 14.0117 17ZM17 12.3516V10.0273C17 8.74577 15.9574 7.70312 14.6758 7.70312H10.0938C8.81214 7.70312 7.76953 8.74577 7.76953 10.0273V12.3516C7.76953 13.6331 8.81214 14.6758 10.0938 14.6758H14.6758C15.9574 14.6758 17 13.6331 17 12.3516ZM14.6758 9.03125C15.225 9.03125 15.6719 9.4781 15.6719 10.0273V12.3516C15.6719 12.9008 15.225 13.3477 14.6758 13.3477H10.0938C9.5445 13.3477 9.09766 12.9008 9.09766 12.3516V10.0273C9.09766 9.4781 9.5445 9.03125 10.0938 9.03125H14.6758ZM6.90625 8.63281C6.90625 8.26605 6.60895 7.96875 6.24219 7.96875H2.98828C2.10813 8.00139 2.1088 9.26454 2.98828 9.29688H6.24219C6.60895 9.29688 6.90625 8.99957 6.90625 8.63281ZM9.23047 4.64844V2.32422C9.23047 1.04264 8.18786 0 6.90625 0H2.32422C1.04261 0 0 1.04264 0 2.32422V4.64844C0 5.93001 1.04261 6.97266 2.32422 6.97266H6.90625C8.18786 6.97266 9.23047 5.93001 9.23047 4.64844ZM6.90625 1.32812C7.4555 1.32812 7.90234 1.77497 7.90234 2.32422V4.64844C7.90234 5.19768 7.4555 5.64453 6.90625 5.64453H2.32422C1.77497 5.64453 1.32812 5.19768 1.32812 4.64844V2.32422C1.32812 1.77497 1.77497 1.32812 2.32422 1.32812H6.90625ZM4.58203 17C4.41153 17 4.24113 16.9348 4.11138 16.8044C3.85262 16.5445 3.85362 16.124 4.11354 15.8653L4.98641 14.9965C5.24135 14.7525 5.24254 14.314 4.98887 14.0685L4.12001 13.227C3.85654 12.9719 3.84984 12.5515 4.105 12.288C4.36013 12.0246 4.78052 12.0178 5.04399 12.273L5.91686 13.1184C5.91915 13.1206 5.92148 13.1228 5.92374 13.1251C6.6973 13.8651 6.6973 15.1975 5.9237 15.9374L5.05046 16.8066C4.92094 16.9356 4.75147 17 4.58203 17ZM3.2207 15.1406H2.32422C1.04264 15.1406 0 14.098 0 12.8164V11.4551C0.0326387 10.5749 1.29579 10.5756 1.32812 11.4551V12.8164C1.32812 13.3657 1.77497 13.8125 2.32422 13.8125H3.2207C4.10085 13.8451 4.10019 15.1083 3.2207 15.1406ZM16.3359 6.24219C15.9692 6.24219 15.6719 5.94489 15.6719 5.57812V4.18359C15.6719 3.63435 15.225 3.1875 14.6758 3.1875H13.8125C12.9324 3.15486 12.933 1.89171 13.8125 1.85938H14.6758C15.9574 1.85938 17 2.90202 17 4.18359V5.57812C17 5.94489 16.7027 6.24219 16.3359 6.24219ZM12.4511 4.91406C12.2847 4.91406 12.1182 4.85191 11.9892 4.72703L11.1163 3.88164C11.114 3.87942 11.1117 3.87716 11.1094 3.8749C10.3359 3.13491 10.3359 1.80253 11.1095 1.0626L11.9827 0.193408C12.2427 -0.0653105 12.6631 -0.0643145 12.9218 0.1956C13.1806 0.455547 13.1796 0.875998 12.9197 1.13472L12.0468 2.00351C11.7918 2.24745 11.7906 2.686 12.0443 2.93147L12.9132 3.77297C13.1766 4.02814 13.1833 4.44852 12.9282 4.71199C12.7979 4.84646 12.6246 4.91406 12.4511 4.91406Z" fill="#535353"/>
</svg>
