<svg width="40" height="40" viewBox="0 0 40 40" fill="none" xmlns="http://www.w3.org/2000/svg">
<path d="M29.9523 19.7519C29.9542 19.8346 29.9585 19.9169 29.9585 20.0004C29.9585 25.2993 25.8189 29.6293 20.5978 29.9381C20.5966 34.2082 20.6055 37.8373 20.6291 39.9844C31.3837 39.652 40.0013 30.8354 40.0013 20C40.0013 19.9092 39.9955 19.8199 39.9943 19.7295C37.622 19.748 34.042 19.7538 29.9523 19.7519Z" fill="#F97891"/>
<path d="M20.0015 10.0428C20.2167 10.0428 20.43 10.0521 20.6418 10.0656C20.6561 5.9164 20.6712 2.31825 20.6812 0.0170029C20.4552 0.00927407 20.2295 0 20.0015 0C9.06831 0 0.189847 8.77412 0.00976562 19.6648C2.04012 19.6737 5.69507 19.6895 10.0518 19.705C10.2083 14.3423 14.6014 10.0428 20.0015 10.0428Z" fill="#8255A1"/>
<path d="M29.9531 19.7513C34.0428 19.7536 37.6228 19.7478 39.9955 19.7289C39.8529 9.03573 31.3222 0.372899 20.682 0.0166016C20.6719 2.31785 20.6573 5.91599 20.6426 10.0652C25.761 10.3906 29.8263 14.5811 29.9531 19.7513Z" fill="#F18D98"/>
<path d="M20.5969 29.9372C20.3994 29.9488 20.2008 29.9565 20.0002 29.9565C14.5012 29.9565 10.0432 25.4985 10.0432 19.9995C10.0432 19.9006 10.0478 19.8028 10.0505 19.7043C5.6942 19.6888 2.03925 19.673 0.00850291 19.6641C0.00657071 19.7761 0 19.887 0 19.9995C0 31.0451 8.9542 39.9997 20.0002 39.9997C20.2108 39.9997 20.4191 39.9904 20.6282 39.9839C20.6042 37.836 20.5957 34.207 20.5969 29.9372Z" fill="#F05976"/>
</svg>
