<svg width="22" height="22" viewBox="0 0 22 22" fill="none" xmlns="http://www.w3.org/2000/svg">
<circle cx="11" cy="11" r="11" fill="#8255A1" fill-opacity="0.07"/>
<path d="M11.0323 11.4148C11.0323 11.2565 11.0927 11.0983 11.2133 10.9777L15.0099 7.18113C15.2514 6.93962 15.643 6.93962 15.8844 7.18113C16.1258 7.42254 16.1258 7.81403 15.8844 8.05556L12.525 11.4148L15.8843 14.774C16.1257 15.0155 16.1257 15.407 15.8843 15.6484C15.6428 15.89 15.2513 15.89 15.0098 15.6484L11.2132 11.8519C11.0926 11.7312 11.0323 11.573 11.0323 11.4148Z" fill="#8255A1"/>
<path d="M6.00008 11.4148C6.00008 11.2565 6.0605 11.0983 6.18109 10.9777L9.97766 7.18113C10.2192 6.93962 10.6107 6.93962 10.8521 7.18113C11.0936 7.42254 11.0936 7.81403 10.8521 8.05556L7.49273 11.4148L10.852 14.774C11.0934 15.0155 11.0934 15.407 10.852 15.6484C10.6106 15.89 10.2191 15.89 9.97754 15.6484L6.18097 11.8519C6.06036 11.7312 6.00008 11.573 6.00008 11.4148Z" fill="#8255A1"/>
</svg>
