<svg width="32" height="26" viewBox="0 0 32 26" fill="none" xmlns="http://www.w3.org/2000/svg">
<rect x="1" y="1" width="30" height="24" rx="3" fill="#F9F0FF" stroke="#F9F0FF"/>
<path d="M10.544 15V9.968L9.264 10.888V10.24L10.592 9.28H11.24V15H10.544ZM12.4273 15V14.84L14.6993 12.448C15.2193 11.896 15.5233 11.376 15.5233 10.792C15.5233 10.152 15.1473 9.768 14.4993 9.768C13.8353 9.768 13.4033 10.144 13.2913 11.04H12.6433C12.7313 9.92 13.4113 9.208 14.4993 9.208C15.5553 9.208 16.2273 9.832 16.2273 10.816C16.2273 11.52 15.7793 12.208 15.0753 12.896L13.4993 14.432H16.2593V15H12.4273ZM19.105 15.072C17.889 15.072 17.145 14.312 17.105 13.312H17.745C17.809 13.992 18.217 14.512 19.121 14.512C20.017 14.512 20.425 14.08 20.425 13.408C20.425 12.672 20.025 12.296 19.217 12.296H18.785V11.712H19.185C19.929 11.712 20.257 11.36 20.257 10.736C20.257 10.192 19.913 9.776 19.217 9.776C18.505 9.776 18.025 10.208 17.953 10.856H17.345C17.385 9.952 18.129 9.208 19.217 9.208C20.305 9.208 20.937 9.928 20.937 10.72C20.937 11.368 20.553 11.752 20.033 11.968C20.705 12.144 21.137 12.616 21.137 13.408C21.137 14.448 20.289 15.072 19.105 15.072Z" fill="#535353"/>
</svg>
