<svg width="32" height="26" viewBox="0 0 32 26" fill="none" xmlns="http://www.w3.org/2000/svg">
<rect x="1" y="1" width="30" height="24" rx="3" fill="#F9F0FF" stroke="#F9F0FF"/>
<path d="M10.72 15.072C9.944 15.072 9.328 14.696 9.328 13.84C9.328 12.872 10.352 12.544 11.424 12.544H12.024V12.24C12.024 11.576 11.768 11.296 11.128 11.296C10.552 11.296 10.232 11.536 10.168 12.048H9.504C9.592 11.096 10.352 10.744 11.16 10.744C11.96 10.744 12.688 11.072 12.688 12.24V15H12.024V14.472C11.712 14.864 11.336 15.072 10.72 15.072ZM10.784 14.544C11.488 14.544 12.024 14.184 12.024 13.536V13.016H11.448C10.608 13.016 9.992 13.224 9.992 13.84C9.992 14.272 10.2 14.544 10.784 14.544ZM16.1523 15.072C15.4723 15.072 14.9763 14.728 14.7363 14.312V15H14.0723V8.816H14.7363V11.52C14.9763 11.112 15.5443 10.744 16.1523 10.744C17.2483 10.744 18.0563 11.544 18.0563 12.848V12.912C18.0563 14.192 17.3043 15.072 16.1523 15.072ZM16.0883 14.52C16.9203 14.52 17.3683 13.96 17.3683 12.944V12.88C17.3683 11.824 16.7843 11.296 16.0803 11.296C15.3043 11.296 14.7123 11.808 14.7123 12.88V12.944C14.7123 14.016 15.2723 14.52 16.0883 14.52ZM20.9039 15.072C19.7359 15.072 18.8559 14.248 18.8559 12.952V12.888C18.8559 11.608 19.7679 10.744 20.8879 10.744C21.7599 10.744 22.5759 11.144 22.7039 12.208H22.0479C21.9439 11.544 21.4639 11.296 20.8879 11.296C20.1279 11.296 19.5439 11.904 19.5439 12.888V12.952C19.5439 13.976 20.1039 14.52 20.9119 14.52C21.5039 14.52 22.0399 14.176 22.1119 13.496H22.7279C22.6399 14.4 21.9119 15.072 20.9039 15.072Z" fill="#535353"/>
</svg>
