<svg width="15" height="10" viewBox="0 0 15 10" fill="none" xmlns="http://www.w3.org/2000/svg">
<path d="M5.10526 9.21053C7.37254 9.21053 9.21053 7.37254 9.21053 5.10526C9.21053 2.83799 7.37254 1 5.10526 1C2.83799 1 1 2.83799 1 5.10526C1 7.37254 2.83799 9.21053 5.10526 9.21053Z" fill="white" stroke="#8255A1" stroke-linecap="round" stroke-linejoin="round"/>
<path d="M9.89481 9.21053C12.1621 9.21053 14.0001 7.37254 14.0001 5.10526C14.0001 2.83799 12.1621 1 9.89481 1C7.62754 1 5.78955 2.83799 5.78955 5.10526C5.78955 7.37254 7.62754 9.21053 9.89481 9.21053Z" fill="white" stroke="#8255A1" stroke-linecap="round" stroke-linejoin="round"/>
<path d="M9.2106 5.10554C9.2106 3.73028 8.53324 2.51923 7.50008 1.77344C6.46692 2.51923 5.78955 3.73028 5.78955 5.10554C5.78955 6.48081 6.46692 7.69186 7.50008 8.43765C8.53324 7.69186 9.2106 6.48081 9.2106 5.10554Z" fill="#8255A1"/>
</svg>
