<svg width="14" height="17" viewBox="0 0 14 17" fill="none" xmlns="http://www.w3.org/2000/svg">
<path d="M5.3125 7.03906C5.3125 7.40582 5.6098 7.70312 5.97656 7.70312H9.96094C10.3277 7.70312 10.625 7.40582 10.625 7.03906C10.625 6.6723 10.3277 6.375 9.96094 6.375H5.97656C5.6098 6.375 5.3125 6.6723 5.3125 7.03906Z" fill="#535353"/>
<path d="M9.96094 9.03125H5.97656C5.6098 9.03125 5.3125 9.32855 5.3125 9.69531C5.3125 10.0621 5.6098 10.3594 5.97656 10.3594H9.96094C10.3277 10.3594 10.625 10.0621 10.625 9.69531C10.625 9.32855 10.3277 9.03125 9.96094 9.03125Z" fill="#535353"/>
<path d="M9.96094 11.6875H5.97656C5.6098 11.6875 5.3125 11.9848 5.3125 12.3516C5.3125 12.7183 5.6098 13.0156 5.97656 13.0156H9.96094C10.3277 13.0156 10.625 12.7183 10.625 12.3516C10.625 11.9848 10.3277 11.6875 9.96094 11.6875Z" fill="#535353"/>
<path d="M11.2891 1.32812C10.9223 1.32812 10.625 1.62543 10.625 1.99219C10.625 2.35895 10.9223 2.65625 11.2891 2.65625C11.6552 2.65625 11.9531 2.95415 11.9531 3.32031V15.0078C11.9531 15.374 11.6552 15.6719 11.2891 15.6719H1.99219C1.62602 15.6719 1.32812 15.374 1.32812 15.0078V3.32031C1.32812 2.95415 1.62602 2.65625 1.99219 2.65625H4.09859C4.37272 3.42915 5.11086 3.98438 5.97656 3.98438H7.30469C8.40318 3.98438 9.29688 3.09068 9.29688 1.99219C9.29688 0.893695 8.40318 0 7.30469 0H5.97656C5.11086 0 4.37275 0.555223 4.09859 1.32812H1.99219C0.893695 1.32812 0 2.22182 0 3.32031V15.0078C0 16.1063 0.893695 17 1.99219 17H11.2891C12.3876 17 13.2812 16.1063 13.2812 15.0078V3.32031C13.2812 2.22182 12.3876 1.32812 11.2891 1.32812ZM5.97656 1.32812H7.30469C7.67085 1.32812 7.96875 1.62602 7.96875 1.99219C7.96875 2.35835 7.67085 2.65625 7.30469 2.65625H5.97656C5.6104 2.65625 5.3125 2.35835 5.3125 1.99219C5.3125 1.62602 5.6104 1.32812 5.97656 1.32812Z" fill="#535353"/>
</svg>
