<svg width="40" height="40" viewBox="0 0 40 40" fill="none" xmlns="http://www.w3.org/2000/svg">
<path d="M38.5451 13.3841L18.242 20.5036L36.5673 31.1273C38.6308 27.7132 39.7714 23.7033 39.6391 19.466C39.5069 15.2287 39.1921 15.2833 38.5451 13.3841Z" fill="#F18D98"/>
<path d="M2.54759 10.1157C0.918804 13.024 0 16.396 0 19.9787C0 27.4392 4.00933 33.9724 9.98156 37.4708C13.4062 31.5699 19.8378 20.0209 19.8378 20.0209L2.50583 10.1157H2.54759Z" fill="#F05976"/>
<path d="M33.8715 5.6902C30.2798 2.14963 25.3517 0 19.9641 0C14.5766 0 5.93147 4.17281 2.50684 10.2845L19.8388 20.0211L33.8715 5.64805V5.6902Z" fill="#8255A1"/>
<path d="M38.8647 14.1918C37.8624 10.8198 36.0248 7.86932 33.6025 5.4668L19.8623 20.0084L38.8647 14.1918Z" fill="#F2ADA0"/>
<path d="M19.8379 20.021C19.8379 20.021 13.4481 31.4014 10.0234 37.3023C12.9469 39.0305 16.3715 39.9999 20.005 39.9999C27.0631 39.9999 33.2441 36.3329 36.8358 30.727L19.8379 20.021Z" fill="#F97891"/>
</svg>
