<svg width="14" height="14" viewBox="0 0 14 14" fill="none" xmlns="http://www.w3.org/2000/svg">
<rect x="1" y="1" width="12" height="12" rx="3" stroke="#8255A1" stroke-width="1.5"/>
<g clip-path="url(#clip0_2106_224)">
<path d="M7.02734 6.47266V6.97266H7.52734H9.47266C9.48776 6.97266 9.5 6.9849 9.5 7C9.5 7.0151 9.48776 7.02734 9.47266 7.02734H7.52734H7.02734V7.52734V9.47266C7.02734 9.48776 7.0151 9.5 7 9.5C6.9849 9.5 6.97266 9.48776 6.97266 9.47266V7.52734V7.02734H6.47266H4.52734C4.51224 7.02734 4.5 7.0151 4.5 7C4.5 6.9849 4.51224 6.97266 4.52734 6.97266H6.47266H6.97266V6.47266V4.52734C6.97266 4.51224 6.9849 4.5 7 4.5C7.0151 4.5 7.02734 4.51224 7.02734 4.52734V6.47266Z" fill="#8255A1" stroke="#8255A1"/>
</g>
<defs>
<clipPath id="clip0_2106_224">
<rect width="6" height="6" fill="white" transform="translate(4 4)"/>
</clipPath>
</defs>
</svg>
