<svg width="40" height="41" viewBox="0 0 40 41" fill="none" xmlns="http://www.w3.org/2000/svg">
<path d="M4.02888 37.0578C4.59712 37.0578 5.05776 36.5971 5.05776 36.0289C5.05776 35.4606 4.59712 35 4.02888 35C3.46065 35 3 35.4606 3 36.0289C3 36.5971 3.46065 37.0578 4.02888 37.0578Z" fill="#8255A1"/>
<path d="M9.02888 33.0578C9.59712 33.0578 10.0578 32.5971 10.0578 32.0289C10.0578 31.4606 9.59712 31 9.02888 31C8.46065 31 8 31.4606 8 32.0289C8 32.5971 8.46065 33.0578 9.02888 33.0578Z" fill="#8255A1"/>
<path d="M12.7076 25.4948C13.2758 25.4948 13.7365 25.0341 13.7365 24.4659C13.7365 23.8977 13.2758 23.437 12.7076 23.437C12.1394 23.437 11.6787 23.8977 11.6787 24.4659C11.6787 25.0341 12.1394 25.4948 12.7076 25.4948Z" fill="#8255A1"/>
<path d="M17.7506 20.5856C18.3188 20.5856 18.7794 20.1249 18.7794 19.5567C18.7794 18.9885 18.3188 18.5278 17.7506 18.5278C17.1823 18.5278 16.7217 18.9885 16.7217 19.5567C16.7217 20.1249 17.1823 20.5856 17.7506 20.5856Z" fill="#8255A1"/>
<path d="M22.9967 17.0578C23.5649 17.0578 24.0255 16.5971 24.0255 16.0289C24.0255 15.4606 23.5649 15 22.9967 15C22.4284 15 21.9678 15.4606 21.9678 16.0289C21.9678 16.5971 22.4284 17.0578 22.9967 17.0578Z" fill="#8255A1"/>
<path d="M28.0289 14.0578C28.5971 14.0578 29.0578 13.5971 29.0578 13.0289C29.0578 12.4606 28.5971 12 28.0289 12C27.4606 12 27 12.4606 27 13.0289C27 13.5971 27.4606 14.0578 28.0289 14.0578Z" fill="#8255A1"/>
<path d="M32.0289 10.0578C32.5971 10.0578 33.0578 9.59712 33.0578 9.02888C33.0578 8.46065 32.5971 8 32.0289 8C31.4606 8 31 8.46065 31 9.02888C31 9.59712 31.4606 10.0578 32.0289 10.0578Z" fill="#8255A1"/>
<path d="M35.9967 7.05776C36.5649 7.05776 37.0255 6.59712 37.0255 6.02888C37.0255 5.46065 36.5649 5 35.9967 5C35.4284 5 34.9678 5.46065 34.9678 6.02888C34.9678 6.59712 35.4284 7.05776 35.9967 7.05776Z" fill="#8255A1"/>
<line x1="0.5" y1="40" x2="0.499998" y2="2.18556e-08" stroke="#BBBBBB"/>
<line x1="40" y1="40.5" x2="-4.37114e-08" y2="40.5" stroke="#BBBBBB"/>
</svg>
